<?xml version="1.0" encoding="UTF-8"?>
<svg width="227px" height="154px" viewBox="0 0 227 154" version="1.1" xmlns="http://www.w3.org/2000/svg" xmlns:xlink="http://www.w3.org/1999/xlink">
    <!-- Generator: Sketch 53.1 (72631) - https://sketchapp.com -->
    <title>插画</title>
    <desc>Created with Sketch.</desc>
    <defs>
        <linearGradient x1="50%" y1="9.34895833%" x2="50%" y2="42.7132161%" id="linearGradient-1">
            <stop stop-color="#DEE6F0" offset="0%"></stop>
            <stop stop-color="#DEE6F0" stop-opacity="0.35" offset="48.6023302%"></stop>
            <stop stop-color="#DEE6F0" stop-opacity="0" offset="100%"></stop>
        </linearGradient>
        <linearGradient x1="14.8144531%" y1="38.9350378%" x2="50%" y2="63.6691489%" id="linearGradient-2">
            <stop stop-color="#8B9EAF" offset="0%"></stop>
            <stop stop-color="#97ACBF" stop-opacity="0" offset="100%"></stop>
        </linearGradient>
        <linearGradient x1="89.7823598%" y1="38.204502%" x2="56.0036343%" y2="59.7643882%" id="linearGradient-3">
            <stop stop-color="#97ACBF" offset="0%"></stop>
            <stop stop-color="#C3CFDC" offset="100%"></stop>
        </linearGradient>
        <linearGradient x1="35.5879797%" y1="96.2397047%" x2="35.5879797%" y2="12.6634663%" id="linearGradient-4">
            <stop stop-color="#97ACBF" offset="0%"></stop>
            <stop stop-color="#8B9EAF" offset="100%"></stop>
        </linearGradient>
        <linearGradient x1="56.0036343%" y1="50%" x2="56.0036343%" y2="117.25616%" id="linearGradient-5">
            <stop stop-color="#97ACBF" offset="0%"></stop>
            <stop stop-color="#C3CFDC" offset="100%"></stop>
        </linearGradient>
        <linearGradient x1="50.4157103%" y1="6.58137966%" x2="50.0627357%" y2="85.9422097%" id="linearGradient-6">
            <stop stop-color="#97ACBF" offset="0%"></stop>
            <stop stop-color="#C3CFDC" offset="100%"></stop>
        </linearGradient>
        <linearGradient x1="35.5879797%" y1="96.2397047%" x2="35.5879797%" y2="12.6634663%" id="linearGradient-7">
            <stop stop-color="#B2C1D0" offset="0%"></stop>
            <stop stop-color="#97ACBF" offset="50.7925397%"></stop>
            <stop stop-color="#8B9EAF" offset="100%"></stop>
        </linearGradient>
        <linearGradient x1="35.5879797%" y1="96.2397047%" x2="35.5879797%" y2="12.6634663%" id="linearGradient-8">
            <stop stop-color="#97ACBF" offset="0%"></stop>
            <stop stop-color="#8B9EAF" offset="100%"></stop>
        </linearGradient>
        <linearGradient x1="56.0036343%" y1="50%" x2="56.0036343%" y2="117.25616%" id="linearGradient-9">
            <stop stop-color="#97ACBF" offset="0%"></stop>
            <stop stop-color="#C3CFDC" offset="100%"></stop>
        </linearGradient>
        <linearGradient x1="29.4777989%" y1="82.8166437%" x2="61.3323418%" y2="23.4068529%" id="linearGradient-10">
            <stop stop-color="#97ACBF" offset="0%"></stop>
            <stop stop-color="#C3CFDC" offset="100%"></stop>
        </linearGradient>
        <linearGradient x1="39.8988749%" y1="47.8855646%" x2="0%" y2="72.8466544%" id="linearGradient-11">
            <stop stop-color="#97ACBF" offset="0%"></stop>
            <stop stop-color="#C3CFDC" offset="100%"></stop>
        </linearGradient>
        <linearGradient x1="21.2638748%" y1="55.3255677%" x2="89.7823598%" y2="45.8059201%" id="linearGradient-12">
            <stop stop-color="#97ACBF" offset="0%"></stop>
            <stop stop-color="#97ACBF" offset="48.1958996%"></stop>
            <stop stop-color="#C3CFDC" offset="100%"></stop>
        </linearGradient>
        <linearGradient x1="64.1358897%" y1="6.58137966%" x2="52.133275%" y2="85.9422097%" id="linearGradient-13">
            <stop stop-color="#97ACBF" offset="0%"></stop>
            <stop stop-color="#C3CFDC" offset="100%"></stop>
        </linearGradient>
        <linearGradient x1="89.7823598%" y1="26.9631915%" x2="56.0036343%" y2="69.0700164%" id="linearGradient-14">
            <stop stop-color="#97ACBF" offset="0%"></stop>
            <stop stop-color="#C3CFDC" offset="100%"></stop>
        </linearGradient>
        <linearGradient x1="65.9010223%" y1="6.58137966%" x2="52.3996546%" y2="85.9422097%" id="linearGradient-15">
            <stop stop-color="#97ACBF" offset="0%"></stop>
            <stop stop-color="#C3CFDC" offset="100%"></stop>
        </linearGradient>
    </defs>
    <g id="官网统一框架" stroke="none" stroke-width="1" fill="none" fill-rule="evenodd">
        <g id="3-产品框架结构-服务中心-公告" transform="translate(-142.000000, -159.000000)">
            <g id="公告默认" transform="translate(49.000000, 63.000000)">
                <g id="Mask" transform="translate(0.000000, 1.000000)">
                    <g id="插画" transform="translate(66.000000, 95.000000)">
                        <g id="椭圆形-+-椭圆形-copy-Mask" transform="translate(26.000000, 69.000000)">
                            <g id="地图">
                                <ellipse id="Mask" fill="url(#linearGradient-1)" cx="114.285714" cy="100" rx="114.285714" ry="100"></ellipse>
                                <path d="M52.2499568,16.0004485 C59.6311758,11.8182688 67.598568,8.36070785 76.0205942,5.74286224 C79.3898602,6.9352757 81.9664911,9.21639245 82.9766255,12.3252662 C85.0388321,18.6720855 79.7912901,26.065413 71.2559124,28.8387253 C62.7205348,31.6120376 54.1294953,28.7151378 52.0672887,22.3683186 C51.3925118,20.291569 51.5003685,18.1027729 52.2499568,16.0004485 Z" id="合并形状" fill-opacity="0.1" fill="#B3C2D1"></path>
                                <ellipse id="椭圆形" fill-opacity="0.08" fill="#B7C6D4" transform="translate(169.100401, 23.165967) rotate(15.000000) translate(-169.100401, -23.165967) " cx="169.100401" cy="23.1659675" rx="10" ry="7.5"></ellipse>
                                <ellipse id="椭圆形-copy-3" fill-opacity="0.08" fill="#B7C6D4" transform="translate(43.270923, 53.630792) rotate(-18.000000) translate(-43.270923, -53.630792) " cx="43.2709235" cy="53.6307918" rx="13.3333333" ry="10"></ellipse>
                            </g>
                        </g>
                        <g id="邮箱" transform="translate(80.000000, 0.000000)">
                            <ellipse id="椭圆形" fill="url(#linearGradient-2)" opacity="0.2" cx="65.5714286" cy="109" rx="28.5714286" ry="16"></ellipse>
                            <g id="柱子" transform="translate(51.000000, 45.000000)">
                                <polygon id="Fill-5" fill="url(#linearGradient-3)" points="7.86381179 65.5899987 19.5210883 59.0102779 12.3308049 55.4637192 0.0930128831 61.3156832"></polygon>
                                <polygon id="Fill-11" fill="url(#linearGradient-4)" points="7.86116923 65.587336 19.5210883 58.9800486 19.5210883 60.8342996 7.86116923 67.441587"></polygon>
                                <polygon id="Fill-13" fill="url(#linearGradient-5)" points="0.0878898785 61.3120324 7.86116923 65.587336 7.86116923 67.441587 0.0878898785 63.1662834"></polygon>
                                <polygon id="Fill-7" fill="url(#linearGradient-6)" points="3.10293117 16.2046964 7.96123077 18.9577328 7.96123077 63.7310121 3.10293117 60.9779757"></polygon>
                                <polygon id="Fill-9" fill="url(#linearGradient-7)" points="7.96123077 18.9577328 16.0583968 14.2613765 16.0583968 59.0346559 7.96123077 63.7310121"></polygon>
                                <polygon id="Fill-11" fill="url(#linearGradient-8)" points="7.96123077 6.00226721 17.67783 0.496194332 17.67783 13.4516599 7.96123077 18.9577328"></polygon>
                                <polygon id="Fill-13" fill="url(#linearGradient-9)" points="1.48349798 2.43951417 7.96123077 6.00226721 7.96123077 18.9577328 1.48349798 15.3949798"></polygon>
                            </g>
                            <path d="M14.5075158,41.5710526 L48.1917263,60.6451579 L35.5207789,82.6605263 C33.2125684,86.6716842 28.0999368,88.0681053 24.0729895,85.7876842 L5.04477895,75.0129474 C0.977621053,72.7097895 -0.435852632,67.5352632 1.89551579,63.4845263 L14.5075158,41.5710526 Z" id="Fill-15" fill="url(#linearGradient-10)"></path>
                            <path d="M26.6361053,71.8296 C27.7255789,72.4449684 28.1051579,73.8298105 27.482,74.9148632 C26.8649474,75.9889684 25.4969474,76.3639158 24.4184211,75.7546526 L12.9051579,69.2493895 C11.8156842,68.6338105 11.4361053,67.2489684 12.0592632,66.1639158 C12.6763158,65.0900211 14.0443158,64.7148632 15.1228421,65.3243368 L26.6361053,71.8296 Z" id="Fill-17" fill="#8B9EAF"></path>
                            <path d="M73.4548632,22.1935521 L73.4548632,4.224 C73.4548632,2.51789474 74.1312842,1.35115789 75.2306526,0.833894737 C68.2750737,0.0513684211 15.8514947,3.75978947 15.3837053,3.91789474 C14.8456,4.09978947 14.5074947,4.61136842 14.5074947,5.39157895 L14.5074947,41.7724995 L73.4548632,22.1935521 Z" id="Fill-19" fill="url(#linearGradient-11)"></path>
                            <polygon id="Fill-29" fill="url(#linearGradient-12)" points="48.4022316 60.7050947 98.9285474 36.2610947 73.6653895 22.1187789 14.7180211 41.6977263"></polygon>
                            <path d="M45.2443368,19.9867789 C46.9883368,20.9646737 48.4022316,23.1716211 48.4022316,24.9156211 L48.4022316,60.7050947 L14.5074947,41.6977263 L14.5074947,5.39162105 C14.5074947,3.93288421 15.6900211,3.41330526 17.1487579,4.23141053 L45.2443368,19.9867789 Z M43.9811789,20.8288842 L17.3592842,5.49456842 C15.9005474,4.67646316 15.5601263,6.03814737 15.5601263,7.49688421 L15.5601263,41.0661474 L47.1390737,59.0208842 L47.1390737,25.7577263 C47.1390737,24.0137263 45.7251789,21.8067789 43.9811789,20.8288842 Z" id="合并形状" fill="url(#linearGradient-13)"></path>
                            <path d="M91.5601263,8.10932632 C95.6296,10.4021684 98.9285474,15.5598526 98.9285474,19.6293263 L98.9285474,36.2609053 L48.4022316,60.7051158 L48.4022316,24.9156421 C48.4022316,23.1716421 46.9883368,20.9646947 45.2443368,19.9868 L16.1917053,3.80301053 C22.9698105,3.39248421 76.8378105,-1.68898947 79.7706526,1.4668 L91.5601263,8.10932632 Z" id="Fill-27" fill="url(#linearGradient-14)"></path>
                        </g>
                        <g id="树-弯" transform="translate(150.000000, 83.000000)">
                            <path d="M29.5001504,32.481203 C27.1542857,30.2616541 24.4908271,31.1458647 23.5777444,29.8899248 C20.2718797,26.2809023 26.4180451,16.4643609 23.3323308,11.2818045 C20.6183459,7.82796992 18.4421053,16.3741353 16.1756391,10.4192481 C15.1867669,7.82796992 15.5621053,7.85323308 15.1867669,4.00240602 C15.046015,2.52631579 14.078797,0.032481203 11.6066165,0.393383459 C9.63609023,0.544962406 9.13804511,3.85082707 9.6324812,6.3193985 C10.6177444,10.2676692 13.0863158,13.7215038 11.1121805,17.6733835 C9.6324812,19.1530827 6.66947368,16.6845113 5.6806015,19.1530827 C4.69533835,23.5957895 10.6177444,24.5846617 11.6066165,28.0384962 C12.1010526,31.4959398 7.65834586,31.9867669 5.80691729,31.6186466 C4.63398496,31.68 3.49353383,31.7702256 2.58045113,32.156391 C1.66736842,32.5425564 0.256240602,33.4520301 0.129924812,34.7043609 C-0.487218045,40.7494737 6.73082707,43.6475188 10.1233083,47.2890226 C10.3914795,47.6068545 10.7611955,47.8223097 11.1699248,47.8989474 C11.2368648,47.9178786 11.306074,47.9275922 11.3756391,47.9278195 L19.676391,47.9278195 C19.8165352,47.9261706 19.9554834,47.9017937 20.0878195,47.8556391 C22.7909774,47.3359398 24.8120301,43.1314286 28.2514286,39.8869173 C29.9945865,37.916391 30.8571429,34.5816541 29.5001504,32.481203 Z" id="Shape" fill="url(#linearGradient-15)"></path>
                            <path d="M13.0899248,7.62225564 C13.0899248,7.62225564 12.9022556,9.57834586 14.8944361,14.7428571 C16.8866165,19.9073684 17.752782,25.3136842 16.9443609,27.2409023 C15.3452344,25.2475406 13.6214845,23.3574428 11.7834586,21.5819549 C11.7834586,21.5819549 17.0706767,26.558797 16.5726316,31.0989474 C16.0745865,35.6390977 16.0745865,39.2445113 15.2661654,40.1756391 C15.2661654,40.1756391 13.0285714,35.5741353 7.1206015,36.5088722 C7.1206015,36.5088722 14.9557895,36.0108271 14.9557895,43.2252632 C14.9557895,43.2252632 15.1578947,47.5308271 14.8475188,47.841203 L15.7786466,47.841203 C15.7786466,47.841203 15.2661654,43.7233083 16.962406,40.4210526 C18.6586466,37.118797 23.3684211,35.2601504 23.3684211,35.2601504 C23.3684211,35.2601504 20.3837594,35.8809023 16.3416541,40.1720301 C16.3416541,40.1720301 16.5293233,33.0839098 18.2075188,28.9154887 C19.8857143,24.7470677 22.1774436,22.4481203 22.1774436,22.4481203 C22.1774436,22.4481203 18.6297744,26.4180451 17.9476692,27.1145865 C17.9476692,27.1145865 18.5684211,22.9461654 16.2045113,17.3485714 C13.8406015,11.7509774 13.1945865,8.84571429 13.0899248,7.62225564 Z" id="Shape" fill="#FFFFFF" fill-rule="nonzero" opacity="0.35"></path>
                            <path d="M39.4682707,37.7503759 C37.9488722,36.3067669 36.2201504,36.8842105 35.6282707,36.0685714 C33.4845113,33.7299248 37.4688722,27.363609 35.4694737,24.003609 C33.7118797,21.766015 32.3007519,27.3058647 30.8282707,23.4442105 C30.1894737,21.766015 30.4312782,21.7804511 30.1894737,19.2830075 C30.0956391,18.3302256 29.4676692,16.7242105 27.8688722,16.9479699 C26.5876692,17.0454135 26.2664662,19.1855639 26.5876692,20.7879699 C27.2264662,23.3467669 28.8288722,25.5879699 27.5476692,28.1467669 C26.5876692,29.1067669 24.6604511,27.5079699 24.0288722,29.1067669 C23.3864662,31.993985 27.2264662,32.6291729 27.8688722,34.881203 C28.1864662,37.118797 25.3064662,37.44 24.1082707,37.1981955 C23.3955092,37.2034881 22.6884189,37.3254002 22.0150376,37.5590977 C21.4267669,37.8117293 20.5100752,38.4 20.4270677,39.2120301 C20.0264662,43.1314286 24.7073684,45.0081203 26.9233083,47.3720301 C27.0957476,47.5775694 27.3343685,47.7166586 27.5981955,47.7654135 C27.6416347,47.7781496 27.6864914,47.7854237 27.7317293,47.7870677 L33.123609,47.7870677 C33.2147962,47.7849486 33.3050175,47.7678797 33.3906767,47.7365414 C35.1446617,47.4009023 36.4511278,44.6760902 38.6851128,42.5720301 C39.7894737,41.2691729 40.3488722,39.1109774 39.4682707,37.7503759 Z" id="Shape" fill="#DEE6F0" fill-rule="nonzero"></path>
                            <path d="M28.8288722,21.6288722 C28.8288722,21.6288722 28.7097744,22.8992481 29.9981955,26.244812 C31.2866165,29.5903759 31.8532331,33.1019549 31.3299248,34.3506767 C30.2935526,33.0576353 29.1761161,31.8317099 27.9843609,30.6803008 C27.9843609,30.6803008 31.4093233,33.9067669 31.0881203,36.8481203 C30.7669173,39.7894737 30.7633083,42.1317293 30.24,42.7344361 C30.24,42.7344361 28.796391,39.7533835 24.96,40.3560902 C24.96,40.3560902 30.0378947,40.0348872 30.0378947,44.7121805 C30.0378947,44.7121805 30.1714286,47.5019549 29.9693233,47.7040602 L30.5720301,47.7040602 C30.5720301,47.7040602 30.24,45.0333835 31.3299248,42.8968421 C32.4198496,40.7603008 35.4803008,39.5512782 35.4803008,39.5512782 C35.4803008,39.5512782 33.5458647,39.9554887 30.9257143,42.7344361 C30.9257143,42.7344361 31.0484211,38.1401504 32.1347368,35.4369925 C32.7320201,33.8934677 33.6065574,32.4721917 34.715188,31.2433083 C34.715188,31.2433083 32.4162406,33.8237594 31.9759398,34.2676692 C31.9759398,34.2676692 32.3765414,31.5681203 30.8463158,27.9374436 C29.3160902,24.3067669 28.8974436,22.4228571 28.8288722,21.6288722 Z" id="Shape" fill="#FFFFFF" fill-rule="nonzero" opacity="0.35"></path>
                        </g>
                    </g>
                </g>
            </g>
        </g>
    </g>
</svg>